<svg fill="currentColor" viewBox="0 0 1024 1024">
  <path d="M714.4 816.48c-6.4 0-12.64-2.56-17.28-7.2L512 624.32 326.88 809.28c-4.64 4.64-10.72 7.2-17.28 7.2-6.4 0-12.64-2.56-17.28-7.2l-77.76-77.76c-9.44-9.44-9.44-24.96 0-34.4L399.68 512 214.72 326.88c-9.44-9.44-9.44-24.96 0-34.4l77.76-77.76c9.44-9.44 24.96-9.44 34.4 0L512 399.68l185.12-185.12c9.44-9.44 24.96-9.44 34.4 0l77.76 77.76c9.44 9.44 9.44 24.96 0 34.4L624.32 512l185.12 185.12c9.44 9.44 9.44 24.96 0 34.4l-77.76 77.76c-4.64 4.64-10.88 7.2-17.28 7.2zM512 565.44c6.24 0 12.48 2.4 17.28 7.2l185.12 185.12 43.36-43.36-185.12-185.12c-4.64-4.64-7.2-10.72-7.2-17.28 0-6.4 2.56-12.64 7.2-17.28l185.12-185.12-43.36-43.36-185.12 185.12c-9.44 9.44-24.96 9.44-34.4 0L309.6 266.24l-43.36 43.36 185.12 185.12c4.64 4.64 7.2 10.72 7.2 17.28 0 6.4-2.56 12.64-7.2 17.28L266.24 714.24l43.36 43.36 185.12-185.12c4.8-4.64 11.04-7.04 17.28-7.04z"></path>
</svg>